<svg width="40" height="30" viewBox="0 0 40 30" fill="none" xmlns="http://www.w3.org/2000/svg">
<path d="M36.6673 0.833252H3.33398C1.95315 0.833252 0.833984 1.95242 0.833984 3.33325V26.6666C0.833984 28.0474 1.95315 29.1666 3.33398 29.1666H36.6673C38.0482 29.1666 39.1673 28.0474 39.1673 26.6666V3.33325C39.1673 1.95242 38.0482 0.833252 36.6673 0.833252Z" fill="#007AC6"/>
<path d="M8.7788 15.3574H10.7205L9.74964 12.9766L8.7788 15.3574ZM35.8346 10.8333H30.8605L29.6471 12.1424L28.5546 10.8333H17.9996L17.0288 12.9758L16.058 10.8333H11.8113V11.7858L11.3263 10.8333H7.6863L4.16797 19.1666H8.41464L8.89964 17.8574H10.113L10.598 19.1666H15.3296V18.2141L15.6938 19.1666H18.1205L18.4846 18.0949V19.1666H28.1913L29.4046 17.8574L30.4963 19.1666H35.4705L32.3163 14.9999L35.8346 10.8333ZM21.1538 17.9758H19.8188V13.3333L17.7563 17.9758H16.543L14.4805 13.3333V17.9758H11.6896L11.2046 16.6666H8.29297L7.80797 17.9758H6.23047L8.77797 12.0233H10.8405L13.1455 17.6183V12.0233H15.4505L17.2705 16.0708L18.9688 12.0233H21.2738V17.9758H21.1538ZM33.1655 17.9758H31.3455L29.768 15.9516L27.948 17.9758H22.488V12.0233H28.0688L29.7671 13.9283L31.5871 12.0233H33.2855L30.6171 14.9999L33.1655 17.9758ZM23.823 13.2141V14.2858H26.8563V15.4766H23.823V16.6666H27.2205L28.798 14.8808L27.3421 13.2141H23.823Z" fill="white"/>
</svg>
