<svg width="80" height="57" viewBox="0 0 80 57" fill="none" xmlns="http://www.w3.org/2000/svg">
<path d="M76.8818 5.15681C73.9941 1.74238 68.6624 0.349609 58.4803 0.349609H21.519C11.1037 0.349609 5.68181 1.83222 2.8049 5.4674C0 9.01171 0 14.234 0 21.4617V35.2378C0 49.2402 3.328 56.3496 21.519 56.3496H58.4805C67.3104 56.3496 72.2033 55.1206 75.3688 52.1074C78.615 49.0174 80 43.9722 80 35.2378V21.4617C80 13.8394 79.783 8.58638 76.8818 5.15681ZM51.3603 30.2516L34.5763 38.9766C34.201 39.1717 33.7907 39.2685 33.3809 39.2685C32.9169 39.2685 32.4539 39.1442 32.0439 38.8973C31.2717 38.4319 30.8003 37.5995 30.8003 36.7016V19.3076C30.8003 18.4113 31.2704 17.5796 32.041 17.114C32.8119 16.6484 33.7706 16.6165 34.5703 17.0298L51.3543 25.6986C52.2083 26.1395 52.7445 27.0164 52.7458 27.9731C52.7468 28.9305 52.2129 29.8086 51.3603 30.2516Z" fill="#FF6600"/>
</svg>
