<svg width="16" height="16" viewBox="0 0 16 16" fill="none" xmlns="http://www.w3.org/2000/svg">
<path fill-rule="evenodd" clip-rule="evenodd" d="M8 0C3.5875 0 0 3.5875 0 8C0 12.4125 3.5875 16 8 16C12.4125 16 16 12.4125 16 8C16 3.5875 12.4125 0 8 0Z" fill="#F34235"/>
<path fill-rule="evenodd" clip-rule="evenodd" d="M10.8406 10.8406C10.6469 11.0343 10.3281 11.0343 10.1344 10.8406L8.00002 8.7062L5.86877 10.8406C5.67502 11.0343 5.35627 11.0343 5.16252 10.8406C4.96877 10.6468 4.96877 10.3281 5.16252 10.1343L7.2969 8.00308L5.16252 5.87183C4.96877 5.67808 4.96877 5.35933 5.16252 5.16558C5.35627 4.97183 5.67502 4.97183 5.86877 5.16558L8.00002 7.29683L10.1313 5.16558C10.325 4.97183 10.6438 4.97183 10.8375 5.16558C11.0313 5.35933 11.0313 5.67808 10.8375 5.87183L8.70627 7.99995L10.8375 10.1312C11.0344 10.3281 11.0344 10.6437 10.8406 10.8406Z" fill="white"/>
</svg>
