<svg width="30" height="30" viewBox="0 0 30 30" fill="none" xmlns="http://www.w3.org/2000/svg">
<g clip-path="url(#clip0_1627_812)">
<path d="M22.9169 5.66659C22.9169 3.01281 20.986 0.93335 18.521 0.93335C16.8168 0.93335 15.6826 1.82881 15.0044 2.64362C14.3261 1.82887 13.192 0.93335 11.4877 0.93335C9.0228 0.93335 7.09192 3.01281 7.09192 5.66659C7.09192 8.51872 9.28637 10.3886 12.6081 13.2193C13.1791 13.7061 13.7869 14.2238 14.4257 14.7828C14.5914 14.9279 14.7975 15 15.0044 15C15.2113 15 15.4174 14.9279 15.5831 14.7828C16.2218 14.2238 16.8297 13.7061 17.4006 13.2193C20.7224 10.3886 22.9169 8.51872 22.9169 5.66659Z" fill="#FF6600"/>
<path d="M28.9125 11.5624C27.9474 11.7984 27.7031 12.5351 27.4257 13.4847C26.3995 17.0004 23.1941 19.8294 19.7154 21.1636C19.2564 21.3381 18.7517 21.1074 18.5795 20.658C18.4052 20.2047 18.6319 19.6955 19.0852 19.5221C20.5013 18.9788 21.5299 18.2962 22.5113 17.4414C23.051 16.8817 22.9559 16.1001 22.4834 15.6276C22.0492 15.1918 21.2929 15.1359 20.7559 15.5177C19.9704 16.0707 19.1066 16.4965 18.188 16.7832C16.81 17.2117 15.8837 18.4068 15.8837 19.7582V28.1875C15.8837 28.673 16.2773 29.0666 16.7628 29.0666H20.4294C20.8473 29.0666 21.1749 28.7538 21.2581 28.3442C21.5476 26.9186 22.3718 25.6241 23.566 24.7549C27.33 22.0136 29.8312 17.2975 29.9995 12.4475C30.0213 11.8629 29.4754 11.4263 28.9125 11.5624Z" fill="#FF6600"/>
<path d="M10.2847 21.1637C6.80595 19.8294 3.60052 17.0004 2.5743 13.4847C2.29701 12.5351 2.0526 11.7985 1.08757 11.5624C0.524676 11.4263 -0.0212265 11.8629 0.000635334 12.4476C0.168907 17.2976 2.67013 22.0136 6.43406 24.755C7.62832 25.6242 8.45245 26.9187 8.74199 28.3443C8.82515 28.7538 9.15279 29.0667 9.57069 29.0667H13.2373C13.7228 29.0667 14.1164 28.6731 14.1164 28.1875V19.7582C14.1164 18.4068 13.19 17.2117 11.8121 16.7833C10.8934 16.4965 10.0297 16.0707 9.24416 15.5177C8.70723 15.1359 7.95097 15.1918 7.51672 15.6276C7.0442 16.1001 6.94914 16.8817 7.48883 17.4415C8.47015 18.2962 9.49883 18.9788 10.9149 19.5221C11.3682 19.6955 11.5949 20.2047 11.4206 20.658C11.2484 21.1074 10.7436 21.3381 10.2847 21.1637Z" fill="#FF6600"/>
</g>
<defs>
<clipPath id="clip0_1627_812">
<rect width="30" height="30" fill="white"/>
</clipPath>
</defs>
</svg>
