<svg width="40" height="30" viewBox="0 0 40 30" fill="none" xmlns="http://www.w3.org/2000/svg">
<path d="M36.6673 0.833252H3.33398C1.95327 0.833252 0.833984 1.95254 0.833984 3.33325V26.6666C0.833984 28.0473 1.95327 29.1666 3.33398 29.1666H36.6673C38.048 29.1666 39.1673 28.0473 39.1673 26.6666V3.33325C39.1673 1.95254 38.048 0.833252 36.6673 0.833252Z" fill="#1A1876"/>
<path d="M16.0332 18.9995H18.2074L19.5682 11.0195H17.3932L16.0332 18.9995Z" fill="white"/>
<path d="M23.9523 14.2243C23.1923 13.8551 22.7264 13.6085 22.7314 13.2351C22.7314 12.9018 23.1256 12.5485 23.9814 12.5485C24.612 12.5327 25.2372 12.669 25.8039 12.946L26.0989 11.2168C25.4738 10.9913 24.8135 10.8784 24.1489 10.8835C21.9998 10.8835 20.4823 11.9668 20.4731 13.5168C20.4614 14.6635 21.5564 15.3035 22.3789 15.6835C23.2256 16.0743 23.5106 16.3235 23.5064 16.6726C23.5006 17.2076 22.8306 17.4526 22.2048 17.4526C21.3951 17.4715 20.5941 17.2837 19.8773 16.9068L19.5723 18.6926C20.3476 18.9792 21.1682 19.1234 21.9948 19.1185C24.2814 19.1185 25.7656 18.0485 25.7823 16.3926C25.7864 15.4843 25.2073 14.7935 23.9523 14.2243Z" fill="white"/>
<path d="M31.673 11.0276H29.9922C29.756 10.9973 29.5164 11.0458 29.3105 11.1654C29.1046 11.285 28.9438 11.4691 28.853 11.6892L25.623 19.0001H27.9072C27.9072 19.0001 28.2805 18.0167 28.3647 17.8009H31.1505C31.2155 18.0809 31.4155 18.9967 31.4155 18.9967H33.4339L31.673 11.0276ZM28.9914 16.1717C29.0814 15.9409 29.9689 13.6617 30.1464 13.1792C30.4397 14.5542 30.1539 13.2201 30.7964 16.1717H28.9914Z" fill="white"/>
<path d="M14.2092 11.0258L12.0792 16.4674L11.8525 15.3616L11.09 11.6949C11.0344 11.4825 10.904 11.2973 10.7227 11.1734C10.5414 11.0496 10.3215 10.9953 10.1034 11.0208H6.59586L6.56836 11.1874C7.36585 11.3756 8.13441 11.6702 8.85336 12.0633L10.7867 18.9941H13.0884L16.5125 11.0291L14.2092 11.0258Z" fill="white"/>
</svg>
