<svg width="30" height="30" viewBox="0 0 30 30" fill="none" xmlns="http://www.w3.org/2000/svg">
<g clip-path="url(#clip0_1627_824)">
<path d="M18.75 3.28125H15.9375V0.46875H14.0625V3.28125H11.25V5.15625H14.0625V10.7812H15.9375V5.15625H18.75V3.28125Z" fill="#FF6600"/>
<path d="M27.4041 5.64715C27.0713 5.71857 26.774 5.9039 26.5633 6.17116C26.3526 6.43842 26.2418 6.77084 26.25 7.11106V14.4282C26.25 14.8783 26.1205 15.3188 25.8768 15.6971C25.6332 16.0755 25.2858 16.3757 24.8761 16.5619L22.4349 17.6716C22.3444 17.7127 22.2431 17.724 22.1456 17.7038C22.0482 17.6836 21.9598 17.6329 21.8931 17.5591C21.8264 17.4852 21.7849 17.3921 21.7747 17.2932C21.7644 17.1942 21.7859 17.0946 21.8361 17.0086L23.6467 13.9047C23.832 13.6009 23.9138 13.2452 23.8799 12.891C23.8459 12.5368 23.6981 12.2032 23.4585 11.9401C23.2994 11.7743 23.1064 11.6448 22.8926 11.5607C22.6787 11.4765 22.4492 11.4397 22.2198 11.4528C21.9904 11.4658 21.7666 11.5284 21.5637 11.6362C21.3607 11.744 21.1836 11.8945 21.0444 12.0773L18.2159 15.7925C17.346 16.9353 16.8749 18.3318 16.875 19.768V29.5314H24.8438V24.8439L28.0907 20.3342C28.7226 19.4566 29.0625 18.4027 29.0625 17.3213V7.03137C29.0625 6.82532 29.0172 6.62179 28.9299 6.43516C28.8425 6.24854 28.7153 6.08337 28.5571 5.95134C28.3989 5.8193 28.2136 5.72362 28.0144 5.67106C27.8151 5.6185 27.6068 5.61034 27.4041 5.64715Z" fill="#FF6600"/>
<path d="M20.625 11.1602V8.90625C20.252 8.90625 19.8944 9.05441 19.6306 9.31813C19.3669 9.58185 19.2188 9.93954 19.2188 10.3125V12.9278L20.2991 11.5091C20.3966 11.3828 20.5057 11.266 20.625 11.1602Z" fill="#FF6600"/>
<path d="M24.4931 14.3142L23.3881 16.2084L24.4885 15.7085C24.734 15.5963 24.9421 15.416 25.0882 15.189C25.2342 14.962 25.3121 14.6979 25.3125 14.428V7.11084C25.31 6.72228 25.4003 6.33874 25.576 5.99216C25.7517 5.64559 26.0077 5.34602 26.3226 5.11842C26.1284 4.91642 25.8782 4.77716 25.6041 4.71855C25.3301 4.65995 25.0448 4.68467 24.7849 4.78955C24.525 4.89443 24.3025 5.07467 24.1459 5.30708C23.9893 5.53948 23.9059 5.81342 23.9063 6.09366V11.0835C24.3705 11.4656 24.6842 11.9998 24.7916 12.5913C24.8991 13.1828 24.7933 13.7933 24.4931 14.3142Z" fill="#FF6600"/>
<path d="M22.9688 10.6098V6.09375C22.9689 5.93789 22.9846 5.78243 23.0156 5.62969C22.9997 5.62913 22.9847 5.625 22.9688 5.625C22.5958 5.625 22.2381 5.77316 21.9744 6.03688C21.7107 6.3006 21.5625 6.65829 21.5625 7.03125V10.6284C21.8048 10.5528 22.0571 10.5139 22.311 10.513C22.5336 10.5159 22.7548 10.5485 22.9688 10.6098Z" fill="#FF6600"/>
<path d="M2.59594 5.64715C2.92868 5.71857 3.22605 5.9039 3.43674 6.17116C3.64743 6.43842 3.75822 6.77084 3.75 7.11106V14.4282C3.74999 14.8783 3.87955 15.3188 4.12318 15.6971C4.36681 16.0755 4.71422 16.3757 5.12391 16.5619L7.56506 17.6716C7.65563 17.7127 7.75695 17.724 7.85436 17.7038C7.95177 17.6836 8.04022 17.6329 8.10691 17.5591C8.1736 17.4852 8.21507 17.3921 8.22532 17.2932C8.23557 17.1942 8.21408 17.0946 8.16394 17.0086L6.35325 13.9047C6.16798 13.6009 6.08618 13.2452 6.12013 12.891C6.15408 12.5368 6.30194 12.2032 6.54155 11.9401C6.70056 11.7743 6.89361 11.6448 7.10743 11.5607C7.32125 11.4765 7.55076 11.4397 7.78016 11.4528C8.00957 11.4658 8.23343 11.5284 8.43634 11.6362C8.63926 11.744 8.81641 11.8945 8.95561 12.0773L11.7841 15.7925C12.654 16.9353 13.1251 18.3318 13.125 19.768V29.5314H5.15625V24.8439L1.90927 20.3341C1.27745 19.4566 0.937502 18.4026 0.9375 17.3213V7.03137C0.937528 6.82532 0.98281 6.62179 1.07015 6.43516C1.15749 6.24854 1.28475 6.08337 1.44294 5.95134C1.60113 5.8193 1.78639 5.72362 1.98562 5.67106C2.18485 5.6185 2.3932 5.61034 2.59594 5.64715Z" fill="#FF6600"/>
<path d="M9.375 11.1602V8.90625C9.74796 8.90625 10.1056 9.05441 10.3694 9.31813C10.6331 9.58185 10.7812 9.93954 10.7812 10.3125V12.9278L9.70087 11.5091C9.6034 11.3828 9.49429 11.266 9.375 11.1602Z" fill="#FF6600"/>
<path d="M5.50685 14.3142L6.61193 16.2084L5.51145 15.7085C5.26598 15.5963 5.05788 15.416 4.91183 15.189C4.76577 14.962 4.68791 14.6979 4.68748 14.428V7.11084C4.69004 6.72228 4.5997 6.33874 4.424 5.99216C4.24829 5.64559 3.99231 5.34602 3.67737 5.11842C3.8716 4.91642 4.12184 4.77716 4.39587 4.71855C4.66991 4.65995 4.95521 4.68467 5.21508 4.78955C5.47494 4.89443 5.69749 5.07467 5.85407 5.30708C6.01066 5.53948 6.09412 5.81342 6.09373 6.09366V11.0835C5.62953 11.4656 5.31583 11.9998 5.20838 12.5913C5.10093 13.1828 5.20668 13.7933 5.50685 14.3142Z" fill="#FF6600"/>
<path d="M7.03125 10.6098V6.09375C7.0311 5.93789 7.01539 5.78243 6.98438 5.62969C7.00031 5.62913 7.01527 5.625 7.03125 5.625C7.40421 5.625 7.7619 5.77316 8.02562 6.03688C8.28934 6.3006 8.4375 6.65829 8.4375 7.03125V10.6284C8.19516 10.5528 7.94286 10.5139 7.689 10.513C7.46643 10.5159 7.24524 10.5485 7.03125 10.6098Z" fill="#FF6600"/>
</g>
<defs>
<clipPath id="clip0_1627_824">
<rect width="30" height="30" fill="white"/>
</clipPath>
</defs>
</svg>
