<svg width="24" height="24" viewBox="0 0 24 24" fill="none" xmlns="http://www.w3.org/2000/svg">
<path d="M4.94998 14.43C4.455 15.675 3.67501 16.905 2.63251 18.09C2.30251 18.465 2.25751 19.005 2.5275 19.425C2.73752 19.755 3.08249 19.935 3.45749 19.935C3.5625 19.935 3.66751 19.9275 3.77252 19.89C5.97748 19.245 11.13 16.9575 11.2725 9.62245C11.325 6.79498 9.25502 4.36499 6.5625 4.08749C5.07001 3.93748 3.58502 4.42495 2.4825 5.41496C1.38002 6.41247 0.75 7.83749 0.75 9.32247C0.75 11.7975 2.50502 13.965 4.94998 14.43Z" fill="#FF6600"/>
<path d="M18.5326 4.08749C17.0475 3.93748 15.5626 4.42495 14.4601 5.41496C13.3576 6.41247 12.7275 7.83749 12.7275 9.32247C12.7275 11.7975 14.4826 13.965 16.9276 14.43C16.4325 15.675 15.6526 16.905 14.61 18.09C14.28 18.465 14.235 19.005 14.5051 19.425C14.7151 19.755 15.0601 19.9349 15.4351 19.9349C15.54 19.9349 15.6451 19.9275 15.7501 19.8899C17.9551 19.245 23.1076 16.9575 23.2501 9.62244V9.51748C23.2501 6.73497 21.2026 4.36499 18.5326 4.08749Z" fill="#FF6600"/>
</svg>
