<svg width="52" height="52" viewBox="0 0 52 52" fill="none" xmlns="http://www.w3.org/2000/svg">
<path d="M10.725 31.2649C9.6525 33.9624 7.96253 36.6274 5.70377 39.1949C4.98877 40.0074 4.89127 41.1774 5.47625 42.0874C5.9313 42.8024 6.67873 43.1924 7.49123 43.1924C7.71875 43.1924 7.94628 43.1762 8.1738 43.0949C12.9512 41.6974 24.115 36.7412 24.4238 20.8486C24.5375 14.7224 20.0525 9.45744 14.2187 8.85619C10.985 8.53117 7.76755 9.58736 5.37875 11.7324C2.99005 13.8937 1.625 16.9812 1.625 20.1987C1.625 25.5611 5.42755 30.2574 10.725 31.2649Z" fill="#3F3E3E"/>
<path d="M40.1538 8.85619C36.9362 8.53117 33.7187 9.58736 31.33 11.7324C28.9412 13.8937 27.5762 16.9812 27.5762 20.1987C27.5762 25.5611 31.3787 30.2574 36.6762 31.2649C35.6037 33.9624 33.9137 36.6274 31.6549 39.1949C30.9399 40.0074 30.8424 41.1774 31.4275 42.0874C31.8825 42.8024 32.63 43.1923 33.4425 43.1923C33.6699 43.1923 33.8975 43.1762 34.125 43.0948C38.9025 41.6974 50.0662 36.7411 50.375 20.8486V20.6212C50.375 14.5924 45.9388 9.45744 40.1538 8.85619Z" fill="#3F3E3E"/>
</svg>
