<svg width="34" height="25" viewBox="0 0 34 25" fill="none" xmlns="http://www.w3.org/2000/svg">
<rect y="0.666626" width="34" height="24" rx="2" fill="#F0F0F0"/>
<path fill-rule="evenodd" clip-rule="evenodd" d="M9.4488 9.00978C9.16341 9.36168 8.7068 9.63923 8.25019 9.59958C8.19311 9.12378 8.41666 8.61824 8.67826 8.30599C8.96365 7.94418 9.46307 7.68645 9.86736 7.66663C9.91492 8.16226 9.72942 8.64797 9.4488 9.00978ZM9.86297 9.6939C9.46071 9.66978 9.09366 9.81996 8.79718 9.94127C8.60639 10.0193 8.44483 10.0854 8.32191 10.0854C8.18398 10.0854 8.01574 10.0158 7.82685 9.93761C7.57935 9.83515 7.29638 9.71802 6.99964 9.72364C6.31948 9.73355 5.68688 10.135 5.33967 10.7744C4.62621 12.0531 5.15417 13.9464 5.84384 14.9872C6.18155 15.5027 6.58584 16.0677 7.11855 16.0479C7.35291 16.0387 7.5215 15.9641 7.69597 15.887C7.89683 15.7982 8.1055 15.7059 8.43131 15.7059C8.74582 15.7059 8.94536 15.7958 9.13691 15.882C9.31903 15.964 9.49393 16.0428 9.75358 16.038C10.3053 16.028 10.6525 15.5225 10.9902 15.0071C11.3547 14.4538 11.5148 13.9139 11.5391 13.832L11.5391 13.832L11.542 13.8225C11.5414 13.8219 11.5369 13.8197 11.5289 13.816C11.4071 13.7578 10.476 13.3136 10.467 12.1225C10.4581 11.1227 11.2056 10.6161 11.3233 10.5364L11.3233 10.5364L11.3233 10.5363L11.3234 10.5363L11.3234 10.5363C11.3305 10.5315 11.3353 10.5283 11.3374 10.5266C10.8618 9.79303 10.1198 9.71373 9.86297 9.6939ZM13.6826 15.9832V8.25633H16.4651C17.9015 8.25633 18.9051 9.28724 18.9051 10.794C18.9051 12.3007 17.8825 13.3415 16.427 13.3415H14.8337V15.9832H13.6826ZM14.834 9.26758H16.161C17.1598 9.26758 17.7306 9.82268 17.7306 10.7991C17.7306 11.7755 17.1598 12.3355 16.1563 12.3355H14.834V9.26758ZM22.7054 15.0564C22.401 15.6611 21.7303 16.0427 21.0074 16.0427C19.9372 16.0427 19.1904 15.3786 19.1904 14.3774C19.1904 13.3862 19.9134 12.8162 21.2499 12.7319L22.6864 12.6427V12.2165C22.6864 11.587 22.2916 11.245 21.5876 11.245C21.0074 11.245 20.584 11.5573 20.4984 12.0331H19.4615C19.4948 11.0319 20.3985 10.3033 21.6209 10.3033C22.9384 10.3033 23.7946 11.022 23.7946 12.1372V15.9833H22.7292V15.0564H22.7054ZM21.3161 15.1259C20.7025 15.1259 20.3125 14.8186 20.3125 14.3478C20.3125 13.8621 20.6883 13.5795 21.4065 13.5349L22.6859 13.4507V13.8868C22.6859 14.6105 22.0961 15.1259 21.3161 15.1259ZM27.3281 16.2858C26.8667 17.6388 26.3388 18.0849 25.2163 18.0849C25.1307 18.0849 24.8453 18.075 24.7787 18.0552V17.1283C24.85 17.1383 25.026 17.1482 25.1164 17.1482C25.6253 17.1482 25.9107 16.9251 26.0867 16.3453L26.1913 16.0033L24.2412 10.3779H25.4446L26.8001 14.9426H26.8239L28.1795 10.3779H29.3496L27.3281 16.2858Z" fill="black"/>
</svg>
