<svg width="40" height="29" viewBox="0 0 40 29" fill="none" xmlns="http://www.w3.org/2000/svg">
<rect y="0.666748" width="40" height="28" rx="2" fill="#FFECE4"/>
<path d="M20 27.6665L39 21.9165V24.6665C39 26.3234 37.6569 27.6665 36 27.6665H20Z" fill="#FD6020"/>
<path fill-rule="evenodd" clip-rule="evenodd" d="M34.5821 11.3851C35.8119 11.3851 36.4882 11.9539 36.4882 13.0285C36.5497 13.8502 35.9963 14.5455 35.2585 14.6719L36.9187 17.0106H35.6274L34.2132 14.7351H34.0902V17.0106H33.0449V11.3851H34.5821ZM34.0898 13.9767H34.3973C35.0736 13.9767 35.3811 13.6607 35.3811 13.0918C35.3811 12.5861 35.0736 12.2701 34.3973 12.2701H34.0898V13.9767ZM29.4141 17.0106H32.3655V16.0625H30.4594V14.5455H32.304V13.5974H30.4594V12.3332H32.3655V11.3851H29.4141V17.0106ZM26.3413 15.1776L24.9271 11.3851H23.8203L26.0954 17.137H26.6488L28.9238 11.3851H27.817L26.3413 15.1776ZM13.8594 14.2297C13.8594 15.8099 15.0891 17.1372 16.6263 17.1372C17.1182 17.1372 17.5486 17.0108 17.9791 16.8212V15.557C17.6716 15.9363 17.2412 16.1891 16.7493 16.1891C15.7655 16.1891 14.9662 15.4306 14.9662 14.4193V14.2929C14.9047 13.2815 15.704 12.3966 16.6878 12.3334C17.1797 12.3334 17.6716 12.5862 17.9791 12.9655V11.7013C17.6101 11.4485 17.1182 11.3853 16.6878 11.3853C15.0891 11.2589 13.8594 12.5862 13.8594 14.2297ZM11.9539 13.5344C11.339 13.2815 11.1545 13.1551 11.1545 12.8391C11.216 12.4598 11.5235 12.1438 11.8924 12.207C12.1998 12.207 12.5073 12.3966 12.7532 12.6495L13.3066 11.891C12.8762 11.5117 12.3228 11.2589 11.7694 11.2589C10.9086 11.1957 10.1707 11.891 10.1092 12.7759V12.8391C10.1092 13.5976 10.4167 14.04 11.4005 14.3561C11.6464 14.4193 11.8924 14.5457 12.1383 14.6721C12.3228 14.7985 12.4458 14.9882 12.4458 15.241C12.4458 15.6834 12.0768 16.0627 11.7079 16.0627H11.6464C11.1545 16.0627 10.7241 15.7467 10.5396 15.3042L9.86328 15.9995C10.2322 16.6948 10.9701 17.074 11.7079 17.074C12.6917 17.1372 13.4911 16.3787 13.5526 15.3674V15.1778C13.4911 14.4193 13.1836 14.04 11.9539 13.5344ZM8.38672 17.0106H9.43201V11.3851H8.38672V17.0106ZM3.5293 11.3855H5.06649H5.37393C6.84964 11.4487 8.01791 12.7129 7.95643 14.2299C7.95643 15.0516 7.5875 15.8101 6.97262 16.3789C6.41923 16.8214 5.74286 17.0742 5.06649 17.011H3.5293V11.3855ZM4.88166 16.0628C5.37356 16.126 5.92695 15.9363 6.29588 15.6203C6.66481 15.2411 6.84927 14.7354 6.84927 14.1665C6.84927 13.6609 6.66481 13.1552 6.29588 12.7759C5.92695 12.4599 5.37356 12.2703 4.88166 12.3335H4.57422V16.0628H4.88166Z" fill="black"/>
<path fill-rule="evenodd" clip-rule="evenodd" d="M21.1136 11.2549C19.5764 11.2549 18.2852 12.519 18.2852 14.1625C18.2852 15.7427 19.5149 17.07 21.1136 17.1332C22.7123 17.1964 23.942 15.8691 24.0035 14.2257C23.942 12.5823 22.7123 11.2549 21.1136 11.2549V11.2549Z" fill="#FD6020"/>
</svg>
