<svg width="34" height="25" viewBox="0 0 34 25" fill="none" xmlns="http://www.w3.org/2000/svg">
<rect y="0.666626" width="34" height="24" rx="2" fill="#F0F0F0"/>
<path fill-rule="evenodd" clip-rule="evenodd" d="M16.0574 16.1947V13.26H17.572C18.1927 13.26 18.7165 13.0521 19.1436 12.6419L19.2461 12.5379C20.0262 11.6887 19.9749 10.3658 19.1436 9.58018C18.7279 9.16424 18.1585 8.93894 17.572 8.9505H15.1406V16.1947H16.0574ZM16.0566 12.3702V9.83997H17.5943C17.9246 9.83997 18.2378 9.96706 18.4713 10.1981C18.9668 10.6834 18.9782 11.4922 18.4998 11.9947C18.2663 12.2431 17.936 12.3818 17.5943 12.3702H16.0566ZM23.5219 11.6252C23.129 11.2613 22.5938 11.0764 21.9162 11.0764C21.045 11.0764 20.3902 11.3999 19.9574 12.0412L20.766 12.5553C21.0621 12.1163 21.4664 11.8967 21.9788 11.8967C22.3034 11.8967 22.6166 12.018 22.8614 12.2376C23.1006 12.4455 23.2372 12.7459 23.2372 13.0637V13.2774C22.8842 13.081 22.44 12.977 21.8934 12.977C21.2557 12.977 20.7432 13.1272 20.3617 13.4334C19.9802 13.7396 19.7866 14.1439 19.7866 14.6581C19.7752 15.126 19.9745 15.5708 20.3275 15.8712C20.6863 16.1947 21.1418 16.3565 21.677 16.3565C22.3091 16.3565 22.8102 16.0734 23.1917 15.5073H23.2315V16.1947H24.1084V13.1388C24.1084 12.4975 23.9148 11.9892 23.5219 11.6252ZM21.0343 15.282C20.8463 15.1434 20.7324 14.9181 20.7324 14.6754C20.7324 14.4039 20.8577 14.1786 21.1026 13.9995C21.3532 13.8205 21.6664 13.728 22.0366 13.728C22.5491 13.7223 22.9478 13.8378 23.2325 14.0689C23.2325 14.4617 23.0788 14.8025 22.7769 15.0914C22.5036 15.3687 22.1334 15.5246 21.7461 15.5246C21.4899 15.5304 21.2393 15.4438 21.0343 15.282ZM26.0801 18.3726L29.1435 11.2382H28.147L26.7292 14.7967H26.7121L25.2601 11.2382H24.2637L26.2737 15.877L25.1349 18.3726H26.0801Z" fill="#3C4043"/>
<path d="M12.8935 12.6244C12.8935 12.3414 12.8707 12.0583 12.8251 11.781H8.95886V13.3812H11.1739C11.0828 13.8953 10.7867 14.3575 10.3539 14.6463V15.6862H11.6749C12.4493 14.9641 12.8935 13.8953 12.8935 12.6244Z" fill="#4285F4"/>
<path d="M8.95805 16.6915C10.0627 16.6915 10.9965 16.3218 11.6741 15.6863L10.3531 14.6465C9.98298 14.9007 9.51038 15.0451 8.95805 15.0451C7.88756 15.0451 6.9822 14.3114 6.65764 13.3293H5.29675V14.4038C5.99143 15.8076 7.40926 16.6915 8.95805 16.6915Z" fill="#34A853"/>
<path d="M6.65834 13.3294C6.48749 12.8153 6.48749 12.2549 6.65834 11.735V10.6663H5.29724C4.71065 11.839 4.71065 13.2254 5.29724 14.3981L6.65834 13.3294Z" fill="#FBBC04"/>
<path d="M8.95805 10.0192C9.54454 10.0077 10.1083 10.233 10.5296 10.6431L11.7026 9.45309C10.9567 8.74831 9.97729 8.36126 8.95805 8.37281C7.40926 8.37281 5.99143 9.26245 5.29675 10.6662L6.65764 11.7407C6.9822 10.7529 7.88756 10.0192 8.95805 10.0192Z" fill="#EA4335"/>
</svg>
