<svg width="40" height="30" viewBox="0 0 40 30" fill="none" xmlns="http://www.w3.org/2000/svg">
<path d="M36.6673 0.833252H3.33398C1.95327 0.833252 0.833984 1.95254 0.833984 3.33325V26.6666C0.833984 28.0473 1.95327 29.1666 3.33398 29.1666H36.6673C38.048 29.1666 39.1673 28.0473 39.1673 26.6666V3.33325C39.1673 1.95254 38.048 0.833252 36.6673 0.833252Z" fill="#243747"/>
<path d="M15.8346 21.6666C19.5165 21.6666 22.5013 18.6818 22.5013 14.9999C22.5013 11.318 19.5165 8.33325 15.8346 8.33325C12.1527 8.33325 9.16797 11.318 9.16797 14.9999C9.16797 18.6818 12.1527 21.6666 15.8346 21.6666Z" fill="#E61C24"/>
<path d="M24.112 21.6666C27.7939 21.6666 30.7787 18.6818 30.7787 14.9999C30.7787 11.318 27.7939 8.33325 24.112 8.33325C20.4301 8.33325 17.4453 11.318 17.4453 14.9999C17.4453 18.6818 20.4301 21.6666 24.112 21.6666Z" fill="#F99F1B"/>
<path d="M19.9728 9.77979C19.1849 10.4027 18.5481 11.1959 18.1104 12.0999C17.6727 13.004 17.4453 13.9954 17.4453 14.9998C17.4453 16.0042 17.6727 16.9956 18.1104 17.8996C18.5481 18.8037 19.1849 19.5969 19.9728 20.2198C20.7607 19.5969 21.3974 18.8037 21.8352 17.8996C22.2729 16.9956 22.5003 16.0042 22.5003 14.9998C22.5003 13.9954 22.2729 13.004 21.8352 12.0999C21.3974 11.1959 20.7607 10.4027 19.9728 9.77979V9.77979Z" fill="#F26622"/>
</svg>
