<svg width="40" height="40" viewBox="0 0 40 40" fill="none" xmlns="http://www.w3.org/2000/svg">
<circle cx="20" cy="20" r="20" fill="black"/>
<path d="M17.1134 20.3672C15.5274 20.3672 14.2462 21.6484 14.2696 23.2187C14.2852 24.2266 14.8399 25.1016 15.6563 25.5898C15.379 25.1641 15.2149 24.6602 15.2071 24.1172C15.1837 22.5469 16.4649 21.2656 18.0509 21.2656C18.3634 21.2656 18.6641 21.3164 18.9454 21.4062V18.2617C18.6524 18.2187 18.3516 18.1953 18.0509 18.1953C18.0352 18.1953 18.0235 18.1953 18.0079 18.1953V20.5078C17.7266 20.418 17.4259 20.3672 17.1134 20.3672Z" fill="#F00044"/>
<path d="M23.9687 10.9375H23.9453H23.1328C23.3672 12.1133 24.0273 13.1367 24.9492 13.832C24.3438 13.0312 23.9766 12.0312 23.9687 10.9375Z" fill="#F00044"/>
<path d="M28.75 15.7227C28.4414 15.7227 28.1445 15.6914 27.8516 15.6367V17.8906C26.7891 17.8906 25.7578 17.6836 24.7891 17.2695C24.1641 17.0039 23.582 16.6641 23.0469 16.2539L23.0625 23.2031C23.0547 24.7656 22.4375 26.2305 21.3203 27.3359C20.4102 28.2344 19.2578 28.8086 18.0078 28.9922C17.7148 29.0352 17.4141 29.0586 17.1133 29.0586C15.7773 29.0586 14.5039 28.625 13.4688 27.8242C13.5859 27.9648 13.7109 28.1016 13.8477 28.2344C14.9727 29.3438 16.4648 29.957 18.0547 29.957C18.3555 29.957 18.6562 29.9336 18.9492 29.8906C20.1992 29.707 21.3516 29.1328 22.2617 28.2344C23.3789 27.1289 23.9961 25.6641 24.0039 24.1016L23.9453 17.1523C24.4766 17.5625 25.0586 17.9063 25.6875 18.168C26.6602 18.5781 27.6914 18.7891 28.75 18.7891" fill="#F00044"/>
<path d="M13.836 19.9258C14.9492 18.8203 16.4297 18.207 18.0078 18.1953V17.3633C17.7149 17.3203 17.4141 17.2969 17.1133 17.2969C15.5195 17.2969 14.0235 17.9102 12.8985 19.0273C11.793 20.125 11.1602 21.625 11.1641 23.1836C11.1641 24.7539 11.7852 26.2266 12.9063 27.3398C13.086 27.5156 13.2695 27.6797 13.4649 27.8281C12.582 26.7773 12.1016 25.4648 12.0977 24.082C12.1016 22.5234 12.7305 21.0234 13.836 19.9258Z" fill="#08FFF9"/>
<path d="M27.8516 15.6367V14.8008H27.8438C26.7578 14.8008 25.7578 14.4414 24.9531 13.832C25.6523 14.7539 26.6758 15.4102 27.8516 15.6367Z" fill="#08FFF9"/>
<path d="M17.8906 26.8828C18.2617 26.9023 18.6172 26.8516 18.9453 26.7461C20.0781 26.375 20.8945 25.3203 20.8945 24.0781L20.8984 19.4297V10.9375H23.1328C23.0742 10.6445 23.043 10.3477 23.0391 10.0391H19.9609V18.5273L19.957 23.1758C19.957 24.418 19.1406 25.4727 18.0078 25.8438C17.6797 25.9531 17.3242 26.0039 16.9531 25.9805C16.4805 25.9531 16.0391 25.8125 15.6562 25.5859C16.1367 26.3281 16.957 26.832 17.8906 26.8828Z" fill="#08FFF9"/>
<path d="M18.0078 28.9922C19.2578 28.8086 20.4102 28.2344 21.3203 27.3359C22.4375 26.2305 23.0547 24.7656 23.0625 23.2031L23.0469 16.2539C23.5781 16.6641 24.1602 17.0078 24.7891 17.2695C25.7617 17.6797 26.793 17.8906 27.8516 17.8906V15.6367C26.6758 15.4102 25.6524 14.7539 24.9531 13.832C24.0313 13.1367 23.3672 12.1133 23.1367 10.9375H20.8985V19.4258L20.8945 24.0742C20.8945 25.3164 20.0781 26.3711 18.9453 26.7422C18.6172 26.8516 18.2617 26.9023 17.8906 26.8789C16.9531 26.8281 16.1367 26.3242 15.6563 25.5859C14.8399 25.1016 14.2852 24.2227 14.2695 23.2148C14.2461 21.6445 15.5274 20.3633 17.1133 20.3633C17.4258 20.3633 17.7266 20.4141 18.0078 20.5039V18.1914C16.4297 18.2031 14.9492 18.8164 13.836 19.9219C12.7305 21.0195 12.0977 22.5195 12.1016 24.0742C12.1016 25.457 12.582 26.7695 13.4688 27.8203C14.5078 28.6211 15.7774 29.0547 17.1133 29.0547C17.4141 29.0586 17.7149 29.0352 18.0078 28.9922Z" fill="black"/>
</svg>
