<svg width="40" height="40" viewBox="0 0 40 40" fill="none" xmlns="http://www.w3.org/2000/svg">
<circle cx="20" cy="20" r="20" fill="#FF0000"/>
<g clip-path="url(#clip0_42_289)">
<path d="M29.5879 15.199C29.3574 14.3422 28.6819 13.6668 27.8252 13.4361C26.2602 13.0078 19.9998 13.0078 19.9998 13.0078C19.9998 13.0078 13.7396 13.0078 12.1745 13.4198C11.3344 13.6504 10.6424 14.3423 10.4118 15.199C10 16.7639 10 20.0094 10 20.0094C10 20.0094 10 23.2713 10.4118 24.8199C10.6425 25.6765 11.3179 26.352 12.1747 26.5827C13.7561 27.011 20 27.011 20 27.011C20 27.011 26.2602 27.011 27.8252 26.5991C28.682 26.3685 29.3574 25.693 29.5881 24.8364C29.9999 23.2713 29.9999 20.0259 29.9999 20.0259C29.9999 20.0259 30.0164 16.7639 29.5879 15.199Z" fill="white"/>
<path d="M18.0066 23.0079L23.2124 20.0096L18.0066 17.0112V23.0079Z" fill="#FF0000"/>
</g>
<defs>
<clipPath id="clip0_42_289">
<rect width="20" height="20" fill="white" transform="translate(10 10)"/>
</clipPath>
</defs>
</svg>
