<svg width="20" height="24" viewBox="0 0 20 24" fill="none" xmlns="http://www.w3.org/2000/svg">
<path d="M19.4825 21.5871L18.2091 5.8462C18.1739 5.41139 17.8108 5.07651 17.3746 5.07651H14.875V4.87449C14.875 2.18679 12.6882 0 10.0002 0C7.31224 0 5.12545 2.18679 5.12545 4.87478V5.0768H2.62584C2.18968 5.0768 1.82657 5.41169 1.7914 5.84649L0.517987 21.5871C0.46776 22.207 0.680425 22.8243 1.10182 23.2808C1.52351 23.7379 2.12181 24 2.74329 24H17.2572C17.8789 24 18.477 23.7379 18.8986 23.2808C19.32 22.824 19.5324 22.2067 19.4825 21.5871ZM6.79986 4.87478C6.79986 3.11021 8.23566 1.67441 10.0002 1.67441C11.7648 1.67441 13.2006 3.11021 13.2006 4.87478V5.0768H6.79986V4.87478ZM17.6677 22.1456C17.6057 22.2131 17.4701 22.3256 17.2572 22.3256H2.74329C2.53039 22.3256 2.39471 22.2131 2.33278 22.1456C2.27085 22.0786 2.16981 21.9343 2.1871 21.7222L3.39824 6.75097H5.1254V10.9013C5.1254 11.3637 5.50022 11.7385 5.96261 11.7385C6.425 11.7385 6.79981 11.3637 6.79981 10.9013V6.75097H13.2006V10.9013C13.2006 11.3637 13.5754 11.7385 14.0378 11.7385C14.5002 11.7385 14.875 11.3637 14.875 10.9013V6.75097H16.6021L17.8133 21.7225C17.8307 21.9346 17.7294 22.0786 17.6677 22.1456Z" fill="white"/>
</svg>
