<svg width="16" height="16" viewBox="0 0 16 16" fill="none" xmlns="http://www.w3.org/2000/svg">
<rect x="0.5" y="0.5" width="15" height="15" stroke="white"/>
<rect width="16" height="16" fill="#FF3333"/>
<g clip-path="url(#clip0_205_1620)">
<path d="M7.06334 10.9887C6.98698 11.0655 6.88279 11.1084 6.77456 11.1084C6.66634 11.1084 6.56215 11.0655 6.48578 10.9887L4.17951 8.68204C3.94016 8.4427 3.94016 8.05459 4.17951 7.8157L4.46829 7.52685C4.7077 7.2875 5.09536 7.2875 5.3347 7.52685L6.77456 8.96678L10.6653 5.07599C10.9047 4.83665 11.2927 4.83665 11.5317 5.07599L11.8205 5.36485C12.0598 5.60419 12.0598 5.99222 11.8205 6.23119L7.06334 10.9887Z" fill="white"/>
</g>
<defs>
<clipPath id="clip0_205_1620">
<rect width="8" height="8" fill="white" transform="translate(4 4)"/>
</clipPath>
</defs>
</svg>
