<svg width="16" height="16" viewBox="0 0 16 16" fill="none" xmlns="http://www.w3.org/2000/svg">
<g clip-path="url(#clip0_205_1177)">
<path d="M14.5 14H1.50001C0.672865 14 0 13.3272 0 12.5V10C0 9.72364 0.223626 9.50001 0.500003 9.50001C1.32715 9.50001 2.00001 8.82715 2.00001 8C2.00001 7.17286 1.32715 6.49999 0.500003 6.49999C0.223626 6.50003 0 6.2764 0 6.00003V3.50001C0 2.67287 0.672865 2 1.50001 2H14.5C15.3272 2 16 2.67287 16 3.50001V6.00003C16 6.2764 15.7764 6.50003 15.5 6.50003C14.6729 6.50003 14 7.17289 14 8.00004C14 8.82718 14.6729 9.50005 15.5 9.50005C15.7764 9.50005 16 9.72367 16 10V12.5001C16 13.3272 15.3272 14 14.5 14ZM1.00001 10.4497V12.5C1.00001 12.7759 1.22414 13 1.50001 13H14.5C14.7759 13 15 12.7759 15 12.5V10.4497C13.8604 10.2173 13 9.20755 13 8C13 6.79246 13.8604 5.78273 15 5.55028V3.50001C15 3.22414 14.7759 3.00001 14.5 3.00001H1.50001C1.22414 3.00001 1.00001 3.22414 1.00001 3.50001V5.55032C2.13965 5.78273 3.00002 6.7925 3.00002 8.00004C3.00002 9.20758 2.13965 10.2173 1.00001 10.4497Z" fill="#FF3232"/>
<path d="M6.0321 11.8176L9.03104 3.82046L9.96736 4.17158L6.96843 12.1687L6.0321 11.8176Z" fill="#FF3232"/>
<path d="M5.63465 8.16835C4.80751 8.16835 4.13464 7.49549 4.13464 6.66834C4.13464 5.8412 4.80751 5.16833 5.63465 5.16833C6.4618 5.16833 7.13466 5.8412 7.13466 6.66834C7.13466 7.49549 6.4618 8.16835 5.63465 8.16835ZM5.63465 6.16834C5.35878 6.16834 5.13465 6.39247 5.13465 6.66834C5.13465 6.94422 5.35878 7.16835 5.63465 7.16835C5.91053 7.16835 6.13466 6.94422 6.13466 6.66834C6.13466 6.39247 5.91053 6.16834 5.63465 6.16834Z" fill="#FF3232"/>
<path d="M10.803 11.2693C9.97584 11.2693 9.30298 10.5964 9.30298 9.7693C9.30298 8.94215 9.97584 8.26929 10.803 8.26929C11.6301 8.26929 12.303 8.94215 12.303 9.7693C12.303 10.5964 11.6301 11.2693 10.803 11.2693ZM10.803 9.26929C10.5271 9.26929 10.303 9.49342 10.303 9.7693C10.303 10.0452 10.5271 10.2693 10.803 10.2693C11.0789 10.2693 11.303 10.0452 11.303 9.7693C11.303 9.49342 11.0789 9.26929 10.803 9.26929Z" fill="#FF3232"/>
</g>
<defs>
<clipPath id="clip0_205_1177">
<rect width="16" height="16" fill="white"/>
</clipPath>
</defs>
</svg>
