<svg width="300" height="300" viewBox="0 0 300 300" fill="none" xmlns="http://www.w3.org/2000/svg">
<path d="M26.586 154.89C26.586 154.89 27.996 198.69 64.548 227.85C101.1 257.01 151.74 259.122 192.738 261.894C233.736 264.666 265.2 241.458 270 206.4C274.8 171.342 243.42 161.022 226.422 121.08C209.424 81.138 210.936 68.016 174.972 43.452C139.008 18.888 82.716 33.942 53.22 76.026C23.724 118.11 26.586 154.89 26.586 154.89Z" fill="#D1D1D1"/>
<path d="M26.586 154.89C26.586 154.89 27.996 198.69 64.548 227.85C101.1 257.01 151.74 259.122 192.738 261.894C233.736 264.666 265.2 241.458 270 206.4C274.8 171.342 243.42 161.022 226.422 121.08C209.424 81.138 210.936 68.016 174.972 43.452C139.008 18.888 82.716 33.942 53.22 76.026C23.724 118.11 26.586 154.89 26.586 154.89Z" fill="#F9F9F9"/>
<path d="M204.894 244.326C228.819 244.326 248.214 238.572 248.214 231.474C248.214 224.376 228.819 218.622 204.894 218.622C180.969 218.622 161.574 224.376 161.574 231.474C161.574 238.572 180.969 244.326 204.894 244.326Z" fill="#9B9B9B" stroke="#9B9B9B" stroke-width="1.193" stroke-linecap="round" stroke-linejoin="round"/>
<path d="M204.894 224.532C225.384 224.532 242.544 228.732 247.05 234.426C247.761 233.602 248.172 232.561 248.214 231.474C248.214 224.37 228.816 218.616 204.894 218.616C180.972 218.616 161.568 224.37 161.568 231.474C161.61 232.561 162.021 233.602 162.732 234.426C167.238 228.756 184.398 224.532 204.894 224.532Z" fill="white" stroke="#9B9B9B" stroke-width="1.193" stroke-linecap="round" stroke-linejoin="round"/>
<path d="M198.978 242.712C184.506 242.058 173.586 239.112 173.586 235.512C173.593 235.119 173.717 234.737 173.94 234.414" stroke="white" stroke-width="1.193" stroke-linecap="round" stroke-linejoin="round"/>
<path d="M232.56 232.008C235.038 233.058 236.454 234.258 236.454 235.536C236.454 239.574 222.378 242.844 205.02 242.844H204.27" stroke="white" stroke-width="1.193" stroke-linecap="round" stroke-linejoin="round"/>
<path d="M177.816 231.87C183.258 229.692 193.416 228.222 205.02 228.222C211.623 228.171 218.217 228.711 224.724 229.836" stroke="white" stroke-width="1.193" stroke-linecap="round" stroke-linejoin="round"/>
<path d="M198.564 238.044C194.898 237.534 192.444 236.604 192.444 235.536C192.444 233.922 198.078 232.614 205.044 232.614C212.01 232.614 217.614 233.922 217.614 235.536C217.614 236.922 213.474 238.08 207.918 238.38" stroke="white" stroke-width="1.193" stroke-linecap="round" stroke-linejoin="round"/>
<g opacity="0.4">
<path d="M30.912 179.808C49.806 174.438 89.562 163.842 111.504 163.044C141 162 190.8 183.408 221.892 187.158C252.984 190.908 273.876 189.84 273.876 189.84" stroke="#9B9B9B" stroke-width="1.193" stroke-linecap="round" stroke-linejoin="round"/>
<path d="M20.4 182.874C20.4 182.874 22.032 182.376 24.894 181.542" stroke="#9B9B9B" stroke-width="1.193" stroke-linecap="round" stroke-linejoin="round"/>
<path d="M265.482 149.472C254.591 147.08 243.449 146.026 232.302 146.334C209.25 147.108 184.302 150.156 153.456 154.134C122.61 158.112 78.6841 136.134 48.8161 144.288C18.9481 152.442 21.2161 154.896 21.2161 154.896" stroke="#9B9B9B" stroke-width="1.193" stroke-linecap="round" stroke-linejoin="round"/>
<path d="M273.978 151.68C273.978 151.68 272.814 151.296 270.708 150.738" stroke="#9B9B9B" stroke-width="1.193" stroke-linecap="round" stroke-linejoin="round"/>
</g>
<g opacity="0.4">
<path d="M218.67 95.01C218.338 93.6615 217.564 92.4631 216.471 91.6065C215.377 90.7498 214.029 90.2843 212.64 90.2843C211.251 90.2843 209.903 90.7498 208.809 91.6065C207.716 92.4631 206.942 93.6615 206.61 95.01H218.67Z" stroke="#9B9B9B" stroke-width="1.193" stroke-linecap="round" stroke-linejoin="round"/>
<path d="M279.6 95.01C279.236 93.4732 278.406 92.0859 277.225 91.0371C276.045 89.9882 274.569 89.3286 273 89.148C273.493 86.5416 273.405 83.8583 272.74 81.2902C272.075 78.722 270.851 76.3326 269.155 74.2927C267.46 72.2528 265.334 70.613 262.93 69.4906C260.527 68.3682 257.905 67.7909 255.252 67.8C251.016 67.8002 246.915 69.2904 243.667 72.0096C240.419 74.7289 238.231 78.504 237.486 82.674C235.783 81.3419 233.739 80.5156 231.588 80.2894C229.438 80.0632 227.267 80.4462 225.324 81.3947C223.38 82.3432 221.743 83.8189 220.598 85.6535C219.454 87.4881 218.848 89.6076 218.85 91.77C218.853 92.871 219.013 93.9659 219.324 95.022L279.6 95.01Z" stroke="#9B9B9B" stroke-width="1.193" stroke-linecap="round" stroke-linejoin="round"/>
<path d="M111.342 109.494C111.177 108.806 110.785 108.194 110.229 107.756C109.673 107.317 108.987 107.079 108.279 107.079C107.571 107.079 106.884 107.317 106.329 107.756C105.773 108.194 105.381 108.806 105.216 109.494H111.342Z" stroke="#9B9B9B" stroke-width="1.193" stroke-linecap="round" stroke-linejoin="round"/>
<path d="M142.272 109.494C142.09 108.71 141.67 108.001 141.069 107.464C140.469 106.927 139.718 106.588 138.918 106.494C139.207 105.284 139.246 104.027 139.033 102.801C138.82 101.575 138.359 100.405 137.68 99.363C137 98.3207 136.115 97.4279 135.078 96.739C134.042 96.05 132.876 95.5794 131.652 95.3558C130.428 95.1322 129.171 95.1603 127.958 95.4384C126.745 95.7165 125.602 96.2387 124.597 96.9733C123.593 97.7079 122.749 98.6394 122.116 99.711C121.484 100.783 121.076 101.972 120.918 103.206C120.053 102.53 119.016 102.111 117.925 101.996C116.833 101.881 115.732 102.076 114.745 102.557C113.759 103.038 112.927 103.786 112.346 104.717C111.764 105.647 111.456 106.723 111.456 107.82C111.459 108.381 111.539 108.938 111.696 109.476L142.272 109.494Z" stroke="#9B9B9B" stroke-width="1.193" stroke-linecap="round" stroke-linejoin="round"/>
<path d="M139.158 119.178C139.054 118.743 138.808 118.356 138.457 118.08C138.106 117.803 137.673 117.652 137.226 117.652C136.779 117.652 136.346 117.803 135.995 118.08C135.644 118.356 135.397 118.743 135.294 119.178H139.158Z" stroke="#9B9B9B" stroke-width="1.193" stroke-linecap="round" stroke-linejoin="round"/>
<path d="M158.682 119.178C158.565 118.685 158.299 118.24 157.92 117.904C157.541 117.568 157.067 117.357 156.564 117.3C156.629 116.95 156.661 116.594 156.66 116.238C156.642 114.807 156.094 113.433 155.122 112.383C154.151 111.332 152.824 110.679 151.398 110.55C149.973 110.421 148.55 110.825 147.405 111.684C146.26 112.543 145.475 113.795 145.2 115.2C144.654 114.774 143.999 114.51 143.31 114.438C142.621 114.366 141.926 114.489 141.304 114.793C140.681 115.097 140.157 115.569 139.79 116.157C139.424 116.745 139.23 117.423 139.23 118.116C139.231 118.469 139.281 118.821 139.38 119.16L158.682 119.178Z" stroke="#9B9B9B" stroke-width="1.193" stroke-linecap="round" stroke-linejoin="round"/>
</g>
<path d="M97.5899 188.298C97.3788 188.301 97.1709 188.245 96.9899 188.136C96.7275 187.974 96.5375 187.717 96.4593 187.419C96.3811 187.121 96.4207 186.804 96.5699 186.534C96.8639 186.018 171.048 105.12 204.99 75.456C205.108 75.3609 205.258 75.3142 205.41 75.3253C205.561 75.3365 205.703 75.4046 205.806 75.516C205.905 75.6351 205.953 75.7878 205.942 75.9421C205.931 76.0963 205.861 76.2403 205.746 76.344C171.972 105.882 98.8859 187.2 98.5919 187.71C98.492 187.888 98.3465 188.036 98.1705 188.14C97.9944 188.243 97.7941 188.298 97.5899 188.298Z" fill="#9B9B9B"/>
<path d="M101.688 172.2C101.688 172.2 105.366 168.276 107.574 168.276C109.782 168.276 113.952 171.954 113.706 173.916C113.46 175.878 109.782 174.162 109.782 174.162C109.782 174.162 106.344 178.824 102.912 178.086C99.48 177.348 101.688 172.2 101.688 172.2Z" fill="#D1D1D1" stroke="#9B9B9B" stroke-width="1.193" stroke-linecap="round" stroke-linejoin="round"/>
<path d="M109.8 174.15C109.8 174.15 112.05 175.71 112.248 176.808C112.446 177.906 109.752 181.008 106.758 181.704C103.764 182.4 102.162 180.702 103.062 179.106C103.962 177.51 107.532 174.294 109.8 174.15Z" fill="#D1D1D1" stroke="#9B9B9B" stroke-width="1.193" stroke-linecap="round" stroke-linejoin="round"/>
<path d="M202.2 159.936V78.762C202.2 78.762 200.562 84.636 200.562 85.062" stroke="#9B9B9B" stroke-width="1.193" stroke-linecap="round" stroke-linejoin="round"/>
<path d="M203.088 168.204V161.148C203.088 160.959 203.013 160.777 202.879 160.643C202.745 160.509 202.563 160.434 202.374 160.434C202.185 160.434 202.003 160.509 201.869 160.643C201.735 160.777 201.66 160.959 201.66 161.148V168.204H203.088Z" fill="#9B9B9B"/>
<path d="M206.195 157.422V157.566C206.137 157.457 206.051 157.365 205.946 157.301C205.84 157.236 205.719 157.202 205.595 157.2C205.405 157.2 205.221 157.276 205.086 157.411C204.951 157.546 204.875 157.729 204.875 157.92V165.546C204.875 166.129 204.644 166.688 204.233 167.101C203.821 167.514 203.262 167.746 202.68 167.748C202.378 167.748 202.079 167.685 201.803 167.562C201.644 167.799 201.575 168.085 201.608 168.369C201.641 168.653 201.774 168.916 201.984 169.11C202.213 169.153 202.446 169.175 202.68 169.176C203.156 169.176 203.628 169.082 204.069 168.9C204.509 168.717 204.909 168.45 205.246 168.113C205.583 167.776 205.851 167.375 206.033 166.935C206.216 166.495 206.309 166.023 206.309 165.546V162.012H207.953L206.195 157.422Z" fill="#9B9B9B"/>
<path d="M202.26 78C202.26 78 203.532 73.482 202.404 73.902C201.276 74.322 202.26 78 202.26 78Z" stroke="#9B9B9B" stroke-width="1.193" stroke-linecap="round" stroke-linejoin="round"/>
<path d="M202.26 77.9999C202.26 77.9999 197.46 76.3019 197.886 77.8559C198.312 79.4099 202.26 77.9999 202.26 77.9999Z" stroke="#9B9B9B" stroke-width="1.193" stroke-linecap="round" stroke-linejoin="round"/>
<path d="M98.754 117.378C98.754 117.378 92.832 114.06 81.216 115.722C69.6 117.384 67.386 126.96 69.282 136.914C71.178 146.868 82.164 155.298 83.826 154.59C85.488 153.882 83.352 131.598 87.144 127.332C90.936 123.066 103.26 123.78 103.944 120.462C104.628 117.144 98.754 117.378 98.754 117.378Z" fill="#9B9B9B" stroke="#9B9B9B" stroke-width="1.193" stroke-linecap="round" stroke-linejoin="round"/>
<path d="M78.108 123.288L79.308 131.13C79.308 131.13 71.868 151.44 73.074 154.26C74.28 157.08 85.536 158.076 85.536 158.076C85.536 158.076 103.836 160.29 109.266 158.076C114.696 155.862 111.882 149.43 111.276 147.624C110.67 145.818 107.256 131.334 107.256 131.334C107.256 131.334 108.456 127.914 108.456 126.108C108.456 124.302 108.252 119.268 107.448 118.062C106.644 116.856 92.568 115.446 86.334 116.454C80.1 117.462 77.304 119.07 78.108 123.288Z" fill="#757575" stroke="#9B9B9B" stroke-width="1.193" stroke-linecap="round" stroke-linejoin="round"/>
<path d="M81.3299 132.342C81.3299 132.342 81.1259 149.832 82.1339 153.252C83.1419 156.672 87.1619 160.692 95.6039 159.684C104.046 158.676 104.856 150.636 104.856 150.636L104.256 131.94L81.3299 132.342Z" fill="white" stroke="#9B9B9B" stroke-width="1.193" stroke-linecap="round" stroke-linejoin="round"/>
<path d="M95.8079 144.906C95.8091 145.205 95.7214 145.498 95.556 145.748C95.3906 145.997 95.1549 146.192 94.8787 146.307C94.6025 146.422 94.2983 146.453 94.0046 146.396C93.7109 146.338 93.441 146.194 93.2289 145.983C93.0169 145.772 92.8723 145.503 92.8134 145.209C92.7546 144.916 92.7842 144.611 92.8985 144.335C93.0127 144.058 93.2065 143.822 93.4553 143.655C93.7041 143.489 93.9966 143.4 94.2959 143.4C94.4942 143.399 94.6907 143.437 94.8741 143.513C95.0575 143.588 95.2242 143.699 95.3647 143.839C95.5052 143.979 95.6167 144.145 95.6927 144.328C95.7688 144.511 95.8079 144.708 95.8079 144.906Z" stroke="#9B9B9B" stroke-width="1.193" stroke-miterlimit="10"/>
<path d="M95.604 151.242C95.604 151.442 95.5447 151.637 95.4337 151.803C95.3227 151.968 95.1649 152.098 94.9804 152.174C94.7958 152.25 94.5928 152.269 94.3971 152.23C94.2014 152.191 94.0219 152.094 93.8811 151.953C93.7404 151.811 93.6449 151.631 93.6067 151.435C93.5684 151.239 93.5893 151.036 93.6665 150.852C93.7437 150.668 93.8738 150.511 94.0404 150.401C94.2069 150.291 94.4024 150.233 94.602 150.234C94.7341 150.234 94.8649 150.26 94.9869 150.311C95.1088 150.361 95.2195 150.436 95.3127 150.53C95.4058 150.623 95.4795 150.734 95.5295 150.857C95.5795 150.979 95.6048 151.11 95.604 151.242Z" fill="#9B9B9B"/>
<path d="M89.5319 138.456C90.1739 139.152 90.3959 139.986 90.0359 140.328C89.6759 140.67 88.8359 140.382 88.2059 139.692C87.5759 139.002 87.3359 138.168 87.7019 137.826C88.0679 137.484 88.8899 137.766 89.5319 138.456Z" fill="#9B9B9B"/>
<path d="M97.698 138.456C97.056 139.152 96.828 139.986 97.194 140.328C97.56 140.67 98.394 140.382 98.994 139.692C99.594 139.002 99.864 138.168 99.498 137.826C99.132 137.484 98.34 137.766 97.698 138.456Z" fill="#9B9B9B"/>
<path d="M85.236 136.086C85.6863 135.421 86.3337 134.914 87.0871 134.637C87.8405 134.359 88.6619 134.325 89.436 134.538" stroke="#9B9B9B" stroke-width="1.193" stroke-linecap="round" stroke-linejoin="round"/>
<path d="M97.38 134.76C97.38 134.76 100.248 133.878 101.136 136.308" stroke="#9B9B9B" stroke-width="1.193" stroke-linecap="round" stroke-linejoin="round"/>
<path d="M107.064 246.972C107.064 246.972 110.226 245.076 111.978 244.332C112.142 244.256 112.31 244.19 112.482 244.134C114.03 243.618 118.416 243.876 122.538 241.296C126.66 238.716 124.602 235.62 121.506 234.846C118.41 234.072 115.062 233.046 115.062 233.046L114.288 220.92C114.288 220.92 105 223.5 101.904 224.79C98.8079 226.08 100.614 244.392 100.872 245.94C101.13 247.488 101.13 248.52 107.064 246.972Z" fill="#9B9B9B" stroke="#9B9B9B" stroke-width="1.193" stroke-linecap="round" stroke-linejoin="round"/>
<path d="M117.384 241.296C111.984 242.328 111.984 243.36 106.032 244.392C104.289 244.74 102.511 244.885 100.734 244.824C100.794 245.376 100.842 245.766 100.872 245.94C101.13 247.488 101.13 248.52 107.064 246.972C107.064 246.972 110.226 245.076 111.978 244.332C112.142 244.257 112.31 244.19 112.482 244.134C114.03 243.618 118.416 243.876 122.538 241.296C123.864 240.474 124.542 239.592 124.764 238.752C122.421 239.908 119.942 240.763 117.384 241.296Z" fill="white" stroke="#9B9B9B" stroke-width="1.193" stroke-linecap="round" stroke-linejoin="round"/>
<path d="M119.532 234.69C119.532 234.69 119.334 248.766 118.932 251.778C118.53 254.79 119.13 258.618 123.732 258.618C128.334 258.618 137.406 255.618 140.622 255.018C143.838 254.418 149.07 253.002 151.278 247.98C153.486 242.958 140.022 243.552 140.022 243.552L140.826 233.298C140.826 233.298 126.972 236.094 119.532 234.69Z" fill="#9B9B9B" stroke="#9B9B9B" stroke-width="1.193" stroke-linecap="round" stroke-linejoin="round"/>
<path d="M151.302 247.962C151.548 247.474 151.608 246.913 151.47 246.384C150.092 248.255 148.223 249.709 146.07 250.584C141.27 252.594 132.192 254.784 125.358 255.816C122.232 256.272 120.252 255.762 119.01 255.078C119.454 257.028 120.756 258.63 123.75 258.63C128.376 258.63 137.424 255.63 140.64 255.03C143.856 254.43 149.094 252.984 151.302 247.962Z" fill="white" stroke="#9B9B9B" stroke-width="1.193" stroke-linecap="round" stroke-linejoin="round"/>
<path d="M140.046 243.534C140.046 243.534 141.048 246.954 138.246 249.168" stroke="white" stroke-width="1.193" stroke-linecap="round" stroke-linejoin="round"/>
<path d="M118.128 227.25C118.128 227.25 117.816 233.364 118.158 234.588C119.442 239.232 119.85 238.146 129.504 237.942C139.158 237.738 143.058 233.886 144.066 231.474C145.074 229.062 144.066 223.83 143.664 222.018C143.262 220.206 140.064 219.618 138.834 219.81C137.604 220.002 118.728 225.24 118.128 227.25Z" fill="#757575" stroke="#9B9B9B" stroke-width="1.193" stroke-linecap="round" stroke-linejoin="round"/>
<path d="M51.7679 242.532V256.044C51.7724 256.573 51.9212 257.09 52.1982 257.541C52.4753 257.991 52.87 258.357 53.3399 258.6L75.0599 269.814C75.4464 270.015 75.8733 270.126 76.3087 270.138C76.7441 270.151 77.1766 270.064 77.5739 269.886L109.572 257.688C110.082 257.459 110.516 257.088 110.82 256.618C111.125 256.149 111.287 255.601 111.288 255.042V238.71L74.6879 249.768L51.7679 242.532Z" fill="#D1D1D1"/>
<path opacity="0.18" d="M76.3019 249.282L74.6939 249.768L51.7679 242.532V256.044C51.7724 256.573 51.9212 257.09 52.1982 257.541C52.4753 257.991 52.87 258.357 53.3399 258.6L75.0599 269.814C75.444 270.015 75.8687 270.125 76.3019 270.138V249.282Z" fill="#8F8F8F"/>
<path d="M51.7679 242.532V256.044C51.7724 256.573 51.9212 257.09 52.1982 257.541C52.4753 257.991 52.87 258.357 53.3399 258.6L75.0599 269.814C75.4464 270.015 75.8733 270.126 76.3087 270.138C76.7441 270.151 77.1766 270.064 77.5739 269.886L109.572 257.688C110.082 257.459 110.516 257.088 110.82 256.618C111.125 256.149 111.287 255.601 111.288 255.042V238.71L74.6879 249.768L51.7679 242.532Z" stroke="#9B9B9B" stroke-width="1.193" stroke-linecap="round" stroke-linejoin="round"/>
<path d="M85.2 219.72L50.1 231C49.8256 231.088 49.5865 231.261 49.4171 231.494C49.2477 231.727 49.157 232.008 49.158 232.296V242.304C49.1633 242.556 49.2384 242.802 49.3751 243.014C49.5118 243.225 49.7045 243.395 49.932 243.504L74.4 255.15C74.5647 255.229 74.7436 255.274 74.9261 255.282C75.1085 255.29 75.2908 255.262 75.462 255.198L112.2 241.452C112.46 241.356 112.684 241.182 112.843 240.955C113.001 240.727 113.087 240.457 113.088 240.18L113.154 230.79C113.152 230.479 113.045 230.178 112.85 229.936C112.655 229.694 112.383 229.526 112.08 229.458L85.896 219.684C85.6646 219.638 85.4253 219.65 85.2 219.72Z" fill="white"/>
<path d="M74.3579 255.144C74.5227 255.223 74.7016 255.268 74.884 255.276C75.0665 255.284 75.2487 255.256 75.4199 255.192L112.2 241.452C112.46 241.355 112.684 241.182 112.843 240.955C113.001 240.727 113.087 240.457 113.088 240.18L113.154 230.79C113.155 230.47 113.04 230.161 112.83 229.92L74.8799 243.936L74.3579 255.144Z" fill="#D1D1D1"/>
<path opacity="0.5" d="M74.3579 255.144C74.5227 255.223 74.7016 255.268 74.884 255.276C75.0665 255.284 75.2487 255.256 75.4199 255.192L112.2 241.452C112.46 241.355 112.684 241.182 112.843 240.955C113.001 240.727 113.087 240.457 113.088 240.18L113.154 230.79C113.155 230.47 113.04 230.161 112.83 229.92L74.8799 243.936L74.3579 255.144Z" fill="white"/>
<path d="M49.158 232.266V242.274C49.1633 242.526 49.2384 242.772 49.3751 242.984C49.5117 243.195 49.7045 243.365 49.932 243.474L74.4 255.15C74.5633 255.229 74.7408 255.274 74.922 255.282V243.936L49.2 232.032C49.1767 232.108 49.1626 232.187 49.158 232.266Z" fill="#D1D1D1"/>
<path d="M85.2 219.72L50.1 231C49.8256 231.088 49.5865 231.261 49.4171 231.494C49.2477 231.727 49.157 232.008 49.158 232.296V242.304C49.1633 242.556 49.2384 242.802 49.3751 243.014C49.5118 243.225 49.7045 243.395 49.932 243.504L74.4 255.15C74.5647 255.229 74.7436 255.274 74.9261 255.282C75.1085 255.29 75.2908 255.262 75.462 255.198L112.2 241.452C112.46 241.356 112.684 241.182 112.843 240.955C113.001 240.727 113.087 240.457 113.088 240.18L113.154 230.79C113.152 230.479 113.045 230.178 112.85 229.936C112.655 229.694 112.383 229.526 112.08 229.458L85.896 219.684C85.6646 219.638 85.4253 219.65 85.2 219.72V219.72Z" stroke="#9B9B9B" stroke-width="1.193" stroke-linecap="round" stroke-linejoin="round"/>
<path d="M133.41 201.312C133.41 201.312 138.03 203.52 140.448 207.948C142.866 212.376 141.048 220.812 139.638 223.428C138.228 226.044 128.784 227.25 125.568 227.25C122.352 227.25 121.746 226.848 121.746 226.848C121.746 226.848 111.492 228.858 105.054 230.064C98.6159 231.27 100.254 216.192 102.24 209.352C104.226 202.512 115.512 199.098 120.138 199.098C124.764 199.098 133.41 201.312 133.41 201.312Z" fill="#9B9B9B" stroke="#9B9B9B" stroke-width="1.193" stroke-linecap="round" stroke-linejoin="round"/>
<path d="M121.746 226.848C121.746 226.848 130.392 223.848 134.01 216.192" stroke="white" stroke-width="1.193" stroke-linecap="round" stroke-linejoin="round"/>
<path d="M129.99 222.42C132.776 221.252 135.305 219.545 137.43 217.398" stroke="white" stroke-width="1.193" stroke-linecap="round" stroke-linejoin="round"/>
<path d="M109.68 207.948C109.68 207.948 112.08 220.614 110.88 225.84C109.68 231.066 102.636 231.876 101.028 231.27C99.42 230.664 100.224 218.202 100.224 211.968C100.224 205.734 106.464 206.136 109.68 207.948Z" fill="#757575" stroke="#9B9B9B" stroke-width="1.193" stroke-linecap="round" stroke-linejoin="round"/>
<path d="M58.4039 174.162C58.4039 174.162 56.9999 182.4 58.0019 186.432C58.5124 188.678 59.4694 190.798 60.8159 192.666C60.8159 192.666 55.7879 200.106 56.7959 206.334C57.8039 212.562 60.3959 213.372 60.3959 213.372C60.3959 213.372 58.1879 224.838 62.1959 228.858C66.2039 232.878 75.0659 237.3 84.9179 235.494C94.7699 233.688 101.406 233.28 103.416 229.86C105.426 226.44 104.22 211.362 104.22 211.362C104.22 211.362 103.818 194.676 103.416 184.416C103.014 174.156 101.616 165.918 96.7799 161.898C91.9439 157.878 70.6379 164.112 64.2059 168.33C57.7739 172.548 58.4039 174.162 58.4039 174.162Z" fill="#D1D1D1"/>
<path opacity="0.3" d="M59.838 174.162C59.838 174.162 58.428 182.406 59.436 186.432C59.9435 188.679 60.9007 190.799 62.25 192.666C62.25 192.666 57.222 200.106 58.23 206.334C59.238 212.562 61.83 213.372 61.83 213.372C61.83 213.372 59.616 224.838 63.63 228.858C67.644 232.878 76.524 237.3 86.4 235.494C96.276 233.688 102.894 233.28 104.904 229.86C106.914 226.44 105.708 211.362 105.708 211.362C105.708 211.362 105.306 194.676 104.904 184.416C104.502 174.156 103.104 165.918 98.268 161.898C93.432 157.878 72.126 164.112 65.694 168.33C59.262 172.548 59.838 174.162 59.838 174.162Z" fill="#8F8F8F"/>
<path d="M58.4039 174.162C58.4039 174.162 56.9999 182.4 58.0019 186.432C58.5124 188.678 59.4694 190.798 60.8159 192.666C60.8159 192.666 55.7879 200.106 56.7959 206.334C57.8039 212.562 60.3959 213.372 60.3959 213.372C60.3959 213.372 58.1879 224.838 62.1959 228.858C66.2039 232.878 75.0659 237.3 84.9179 235.494C94.7699 233.688 101.406 233.28 103.416 229.86C105.426 226.44 104.22 211.362 104.22 211.362C104.22 211.362 103.818 194.676 103.416 184.416C103.014 174.156 101.616 165.918 96.7799 161.898C91.9439 157.878 70.6379 164.112 64.2059 168.33C57.7739 172.548 58.4039 174.162 58.4039 174.162Z" stroke="#9B9B9B" stroke-width="1.193" stroke-linecap="round" stroke-linejoin="round"/>
<path d="M60.8159 192.666C63.9289 194.789 67.4904 196.165 71.2226 196.685C74.9548 197.206 78.7568 196.857 82.3319 195.666" stroke="#9B9B9B" stroke-width="1.193" stroke-linecap="round" stroke-linejoin="round"/>
<path d="M60.4139 213.372C60.4139 213.372 70.6679 223.428 87.5639 213.774" stroke="#9B9B9B" stroke-width="1.193" stroke-linecap="round" stroke-linejoin="round"/>
<path d="M100.428 164.31C100.428 164.31 96.612 158.478 91.38 155.262C86.148 152.046 72.684 149.634 67.254 148.626C61.824 147.618 55.992 148.026 54.384 154.026C52.776 160.026 52.974 170.112 54.582 174.534C56.19 178.956 62.826 181.572 68.058 178.56C73.29 175.548 87.762 163.878 92.79 163.278C97.818 162.678 100.026 166.524 100.428 164.31Z" fill="#757575"/>
<path opacity="0.3" d="M89.274 163.2C92.34 161.922 84.672 164.22 84.162 163.452C83.652 162.684 89.526 158.856 90.804 158.346C92.082 157.836 83.394 159.624 83.652 158.346C83.91 157.068 92.082 156.81 86.46 155.532C80.838 154.254 62.46 150.93 58.86 149.652C58.5846 149.562 58.3239 149.433 58.086 149.268C57.1551 149.748 56.341 150.427 55.7013 151.256C55.0616 152.086 54.6119 153.046 54.384 154.068C52.776 160.098 52.974 170.154 54.582 174.576C55.986 178.428 61.182 180.906 65.982 179.496C68.196 177.696 70.242 175.332 73.704 173.154C80.586 168.798 86.208 164.454 89.274 163.2Z" fill="#8F8F8F"/>
<path d="M100.428 164.31C100.428 164.31 96.612 158.478 91.38 155.262C86.148 152.046 72.684 149.634 67.254 148.626C61.824 147.618 55.992 148.026 54.384 154.026C52.776 160.026 52.974 170.112 54.582 174.534C56.19 178.956 62.826 181.572 68.058 178.56C73.29 175.548 87.762 163.878 92.79 163.278C97.818 162.678 100.026 166.524 100.428 164.31Z" stroke="#9B9B9B" stroke-width="1.193" stroke-linecap="round" stroke-linejoin="round"/>
<path d="M122.148 191.658C122.148 191.658 126.774 192.258 129.786 193.458C132.798 194.658 134.814 202.104 133.608 203.106C132.402 204.108 130.008 202.908 130.008 202.908C128.117 203.573 126.163 204.044 124.176 204.312C121.746 204.528 119.13 193.068 122.148 191.658Z" fill="#D1D1D1" stroke="#9B9B9B" stroke-width="1.193" stroke-linecap="round" stroke-linejoin="round"/>
<path d="M106.866 191.052C106.866 191.052 107.67 191.052 112.092 189.042C116.514 187.032 120.138 187.032 122.952 191.442C125.766 195.852 126.972 201.3 125.352 204.516C123.732 207.732 117.714 209.946 114.492 209.946C111.27 209.946 110.892 205.746 110.892 205.746C110.892 205.746 110.49 199.11 108.492 196.698C106.494 194.286 106.062 191.658 106.866 191.052Z" fill="#757575" stroke="#9B9B9B" stroke-width="1.193" stroke-linecap="round" stroke-linejoin="round"/>
<path d="M91.9859 164.31C96.4079 162.702 102.042 163.71 104.052 169.338C106.062 174.966 107.868 191.454 107.868 191.454C107.868 191.454 112.896 192.054 114.906 194.274C116.916 196.494 117.906 202.116 117.522 204.93C117.138 207.744 110.082 212.97 102.042 213.174C94.002 213.378 88.1639 209.574 85.3499 199.296C82.5359 189.018 83.6519 173.4 83.6519 173.4C83.6519 173.4 84.6719 168.798 86.2079 167.772" fill="#D1D1D1"/>
<path opacity="0.3" d="M117.522 204.93C117.924 202.116 116.922 196.482 114.906 194.274C114.828 194.184 114.732 194.1 114.648 194.016C114.889 195.823 115.033 197.642 115.08 199.464C115.482 211.266 98.988 209.292 95.664 200.742C93.864 196.14 93.36 175.95 87.996 174.42C84.9 173.538 83.844 175.962 83.508 178.176C83.4 183.966 83.592 192.888 85.35 199.296C88.164 209.556 93.996 213.372 102.042 213.174C110.088 212.976 117.12 207.744 117.522 204.93Z" fill="#8F8F8F"/>
<path d="M91.9859 164.31C96.4079 162.702 102.042 163.71 104.052 169.338C106.062 174.966 107.868 191.454 107.868 191.454C107.868 191.454 112.896 192.054 114.906 194.274C116.916 196.494 117.906 202.116 117.522 204.93C117.138 207.744 110.082 212.97 102.042 213.174C94.002 213.378 88.1639 209.574 85.3499 199.296C82.5359 189.018 83.6519 173.4 83.6519 173.4C83.6519 173.4 84.6719 168.798 86.2079 167.772" stroke="#9B9B9B" stroke-width="1.193" stroke-linecap="round" stroke-linejoin="round"/>
<path d="M107.868 191.454C107.868 191.454 109.44 198.78 101.364 202.8" stroke="#9B9B9B" stroke-width="1.193" stroke-linecap="round" stroke-linejoin="round"/>
</svg>
