<svg width="160" height="160" viewBox="0 0 160 160" fill="none" xmlns="http://www.w3.org/2000/svg">
<path d="M79.9996 9.84619L28.0098 24.0825V77.3554C28.0098 77.4914 28.0836 91.1487 34.4935 106.867C38.2587 116.1 43.4412 124.23 49.8968 131.03C57.9664 139.531 68.1658 145.965 79.9996 150.154C91.8335 145.965 102.033 139.531 110.102 131.03C116.558 124.23 121.741 116.1 125.506 106.867C131.916 91.1487 131.989 77.4914 131.989 77.3554V24.0825L79.9996 9.84619Z" fill="#E06565"/>
<path d="M110.769 52.0176L103.637 44.8859L79.9997 68.5234L56.3622 44.8859L49.2305 52.0176L72.868 75.6551L49.2305 99.2926L56.3622 106.424L79.9997 82.7868L103.637 106.424L110.769 99.2926L87.1314 75.6551L110.769 52.0176Z" fill="#BF0411"/>
</svg>
