<svg width="160" height="160" viewBox="0 0 160 160" fill="none" xmlns="http://www.w3.org/2000/svg">
<path d="M54.4946 143.793L53.806 142.62C41.9808 122.474 10.5648 79.7272 10.2488 79.2964L9.8457 78.7494L20.4303 68.29L54.318 91.9515C75.6666 64.2383 95.5842 45.2094 108.573 34.0992C122.765 21.9595 132.004 16.3761 132.095 16.3195L132.282 16.2075H150.153L148.611 17.5817C125.312 38.3331 101.152 71.2124 84.9857 95.1429C67.4562 121.091 55.2888 142.398 55.1679 142.611L54.4946 143.793Z" fill="#B0EF8F"/>
<path d="M132.282 16.2075L132.095 16.3195C132.003 16.3746 122.765 21.9595 108.573 34.0992C95.5838 45.2094 75.666 64.2383 54.3183 91.953L53.8057 142.62L54.4943 143.793L55.1675 142.611C55.2884 142.398 67.4558 121.091 84.9853 95.1429C101.152 71.2137 125.312 38.3331 148.61 17.5817L150.153 16.2075H132.282Z" fill="#009045"/>
</svg>
