<svg width="16" height="16" viewBox="0 0 16 16" fill="none" xmlns="http://www.w3.org/2000/svg">
<path d="M6.33997 13.5C6.47257 13.5 6.59975 13.4473 6.69352 13.3536C6.78729 13.2598 6.83997 13.1326 6.83997 13V7C6.83997 6.86739 6.78729 6.74021 6.69352 6.64645C6.59975 6.55268 6.47257 6.5 6.33997 6.5C6.20736 6.5 6.08018 6.55268 5.98641 6.64645C5.89264 6.74021 5.83997 6.86739 5.83997 7V13C5.83997 13.1326 5.89264 13.2598 5.98641 13.3536C6.08018 13.4473 6.20736 13.5 6.33997 13.5Z" fill="#FF3232"/>
<path d="M9.66003 13.5C9.79264 13.5 9.91982 13.4473 10.0136 13.3536C10.1074 13.2598 10.16 13.1326 10.16 13V7C10.16 6.86739 10.1074 6.74021 10.0136 6.64645C9.91982 6.55268 9.79264 6.5 9.66003 6.5C9.52743 6.5 9.40025 6.55268 9.30648 6.64645C9.21271 6.74021 9.16003 6.86739 9.16003 7V13C9.16003 13.1326 9.21271 13.2598 9.30648 13.3536C9.40025 13.4473 9.52743 13.5 9.66003 13.5Z" fill="#FF3232"/>
<path d="M2.5 13.74C2.50132 14.2064 2.68717 14.6533 3.01695 14.9831C3.34673 15.3128 3.79362 15.4987 4.26 15.5H11.76C12.2229 15.4934 12.6647 15.3053 12.9902 14.9761C13.3156 14.6469 13.4987 14.2029 13.5 13.74V5.465C13.4987 5.20947 13.3966 4.96478 13.2159 4.78409C13.0352 4.6034 12.7905 4.50131 12.535 4.5H3.465C3.20947 4.50131 2.96478 4.6034 2.78409 4.78409C2.60341 4.96478 2.50131 5.20947 2.5 5.465V13.74ZM12.5 5.465V13.74C12.5 13.9416 12.4199 14.1349 12.2774 14.2774C12.1349 14.4199 11.9416 14.5 11.74 14.5H4.24C4.04192 14.4948 3.85371 14.4124 3.71548 14.2705C3.57725 14.1285 3.49993 13.9381 3.5 13.74L3.465 5.5L12.5 5.465Z" fill="#FF3232"/>
<path d="M10.025 0.5H6C5.73478 0.5 5.48043 0.605357 5.29289 0.792893C5.10536 0.98043 5 1.23478 5 1.5V2.5H3C2.86739 2.5 2.74021 2.55268 2.64645 2.64645C2.55268 2.74021 2.5 2.86739 2.5 3C2.5 3.13261 2.55268 3.25979 2.64645 3.35355C2.74021 3.44732 2.86739 3.5 3 3.5H13C13.1326 3.5 13.2598 3.44732 13.3536 3.35355C13.4473 3.25979 13.5 3.13261 13.5 3C13.5 2.86739 13.4473 2.74021 13.3536 2.64645C13.2598 2.55268 13.1326 2.5 13 2.5H11V1.5C11.0001 1.23906 10.8982 0.988421 10.716 0.801587C10.5338 0.614753 10.2859 0.506524 10.025 0.5ZM6 2.5V1.5H10V2.5H6Z" fill="#FF3232"/>
</svg>
