<svg width="16" height="16" viewBox="0 0 16 16" fill="none" xmlns="http://www.w3.org/2000/svg">
<path d="M9.33 8.18504C9.93676 7.88494 10.4242 7.38845 10.7131 6.77627C11.002 6.16408 11.0753 5.47219 10.9212 4.81304C10.7671 4.15389 10.3946 3.56623 9.8643 3.14557C9.33395 2.72491 8.67692 2.49597 8 2.49597C7.32308 2.49597 6.66605 2.72491 6.1357 3.14557C5.60536 3.56623 5.23286 4.15389 5.07877 4.81304C4.92467 5.47219 4.99803 6.16408 5.28691 6.77627C5.5758 7.38845 6.06324 7.88494 6.67 8.18504C5.61593 8.4759 4.68626 9.10429 4.02341 9.97395C3.36056 10.8436 3.00106 11.9066 3 13V13.5C3 13.6327 3.05268 13.7598 3.14645 13.8536C3.24021 13.9474 3.36739 14 3.5 14H12.5C12.6326 14 12.7598 13.9474 12.8536 13.8536C12.9473 13.7598 13 13.6327 13 13.5V13C12.9989 11.9066 12.6394 10.8436 11.9766 9.97395C11.3137 9.10429 10.3841 8.4759 9.33 8.18504ZM6 5.50004C6 5.10448 6.1173 4.7178 6.33706 4.3889C6.55682 4.06 6.86918 3.80366 7.23463 3.65228C7.60009 3.50091 8.00222 3.4613 8.39018 3.53847C8.77814 3.61564 9.13451 3.80612 9.41421 4.08583C9.69392 4.36553 9.8844 4.7219 9.96157 5.10986C10.0387 5.49782 9.99913 5.89996 9.84776 6.26541C9.69638 6.63086 9.44004 6.94322 9.11114 7.16298C8.78224 7.38274 8.39556 7.50004 8 7.50004C7.46957 7.50004 6.96086 7.28933 6.58579 6.91426C6.21071 6.53918 6 6.03048 6 5.50004ZM4 13C4 11.9392 4.42143 10.9218 5.17157 10.1716C5.92172 9.42147 6.93913 9.00004 8 9.00004C9.06087 9.00004 10.0783 9.42147 10.8284 10.1716C11.5786 10.9218 12 11.9392 12 13H4Z" fill="#FF3232"/>
</svg>
