<svg width="40" height="40" viewBox="0 0 40 40" fill="none" xmlns="http://www.w3.org/2000/svg">
<path d="M10 0C8.625 0 7.5 1.125 7.5 2.5V37.5C7.5 38.875 8.625 40 10 40H35C36.375 40 37.5 38.875 37.5 37.5V10L27.5 0H10Z" fill="#E2E5E7"/>
<path d="M30 10H37.5L27.5 0V7.5C27.5 8.875 28.625 10 30 10Z" fill="#B0B7BD"/>
<path d="M37.5 17.5L30 10H37.5V17.5Z" fill="#CAD1D8"/>
<path d="M32.5 32.5C32.5 33.1875 31.9375 33.75 31.25 33.75H3.75C3.0625 33.75 2.5 33.1875 2.5 32.5V20C2.5 19.3125 3.0625 18.75 3.75 18.75H31.25C31.9375 18.75 32.5 19.3125 32.5 20V32.5Z" fill="#FF3333"/>
<path d="M7.23297 29.9997C6.90297 29.9997 6.54297 29.8185 6.54297 29.3797V23.7035C6.54297 23.3435 6.90297 23.0835 7.23297 23.0835H9.52172C14.0892 23.0835 13.988 29.9997 9.61047 29.9997H7.23297ZM7.86297 24.3022V28.7797H9.52172C12.2205 28.7797 12.3392 24.3022 9.52172 24.3022H7.86297Z" fill="white"/>
<path d="M17.8156 30.1C15.9669 30.18 14.0469 28.95 14.0469 26.5012C14.0469 24.0425 15.9656 22.8337 17.8156 22.8337C19.5644 22.9225 21.3931 24.1325 21.3931 26.5012C21.3931 28.8712 19.5644 30.1 17.8156 30.1ZM17.7056 24.1337C16.5856 24.1337 15.3669 24.9237 15.3669 26.5025C15.3669 28.0725 16.5869 28.8725 17.7056 28.8725C18.8556 28.8725 20.0844 28.0725 20.0844 26.5025C20.0844 24.9225 18.8556 24.1337 17.7056 24.1337Z" fill="white"/>
<path d="M22.5703 26.4913C22.5703 24.5626 23.7803 22.9038 26.0791 22.9038C26.9491 22.9038 27.6391 23.1638 28.3678 23.7938C28.6378 24.0426 28.6678 24.4826 28.3978 24.7626C28.1278 25.0013 27.7178 24.9726 27.4778 24.7326C27.0691 24.3026 26.6491 24.1838 26.0791 24.1838C24.5403 24.1838 23.8016 25.2738 23.8016 26.4926C23.8016 27.7326 24.5303 28.8713 26.0791 28.8713C26.6491 28.8713 27.1791 28.6401 27.6391 28.2313C27.9478 27.9913 28.3778 28.1101 28.5578 28.3513C28.7178 28.5713 28.7966 28.9413 28.4478 29.2901C27.7478 29.9413 26.9091 30.0713 26.0778 30.0713C23.6603 30.0713 22.5703 28.4201 22.5703 26.4913Z" fill="white"/>
<path d="M31.25 33.75H7.5V35H31.25C31.9375 35 32.5 34.4375 32.5 33.75V32.5C32.5 33.1875 31.9375 33.75 31.25 33.75Z" fill="#CAD1D8"/>
</svg>
