<svg width="21" height="20" viewBox="0 0 21 20" fill="none" xmlns="http://www.w3.org/2000/svg">
<g clip-path="url(#clip0_988_60)">
<path d="M2.76508 2.51508C4.38695 0.893203 6.54332 0 8.83695 0C11.1306 0 13.287 0.893203 14.9088 2.51508C16.5306 4.13691 17.4239 6.29328 17.4239 8.58687C17.4239 10.6839 16.6768 12.6658 15.3093 14.2298L20.0782 18.9987C20.3073 19.2277 20.3073 19.5991 20.0782 19.8282C19.9637 19.9427 19.8136 20 19.6635 20C19.5134 20 19.3632 19.9427 19.2487 19.8282L14.4798 15.0593C12.9159 16.4268 10.9339 17.1738 8.83695 17.1738C6.54328 17.1738 4.38699 16.2806 2.76512 14.6588C1.14328 13.0369 0.250078 10.8805 0.250078 8.58691C0.250078 6.29328 1.14324 4.13691 2.76508 2.51508ZM3.59461 13.8293C6.48527 16.7199 11.1886 16.7199 14.0793 13.8293C16.9699 10.9386 16.9699 6.23523 14.0793 3.34461C12.6338 1.89914 10.7357 1.17664 8.83691 1.17664C6.93863 1.17664 5.03973 1.89949 3.59457 3.34461C0.704023 6.2352 0.704023 10.9386 3.59461 13.8293Z" fill="#898989"/>
</g>
<defs>
<clipPath id="clip0_988_60">
<rect width="20" height="20" fill="white" transform="matrix(-1 0 0 1 20.25 0)"/>
</clipPath>
</defs>
</svg>
